%TF.GenerationSoftware,KiCad,Pcbnew,10.0.5*%
%TF.CreationDate,2026-09-14T06:49:11+03:00*%
%TF.ProjectId,Stepper_Motor_Driver,53746570-7065-4725-9f4d-6f746f725f44,rev?*%
%TF.SameCoordinates,Original*%
%TF.FileFunction,Legend,Top*%
%TF.FilePolarity,Positive*%
%FSLAX46Y46*%
G04 Gerber Fmt 4.6, Leading zero omitted, Abs format (unit mm)*
G04 Created by KiCad (PCBNEW 10.0.5) date 2026-09-14 06:49:11*
%MOMM*%
%LPD*%
G01*
G04 APERTURE LIST*
%ADD10C,0.150000*%
%ADD11C,0.120000*%
G04 APERTURE END LIST*
D10*
X156741905Y-56334819D02*
X156741905Y-55334819D01*
X156741905Y-55334819D02*
X156980000Y-55334819D01*
X156980000Y-55334819D02*
X157122857Y-55382438D01*
X157122857Y-55382438D02*
X157218095Y-55477676D01*
X157218095Y-55477676D02*
X157265714Y-55572914D01*
X157265714Y-55572914D02*
X157313333Y-55763390D01*
X157313333Y-55763390D02*
X157313333Y-55906247D01*
X157313333Y-55906247D02*
X157265714Y-56096723D01*
X157265714Y-56096723D02*
X157218095Y-56191961D01*
X157218095Y-56191961D02*
X157122857Y-56287200D01*
X157122857Y-56287200D02*
X156980000Y-56334819D01*
X156980000Y-56334819D02*
X156741905Y-56334819D01*
X157646667Y-55334819D02*
X158265714Y-55334819D01*
X158265714Y-55334819D02*
X157932381Y-55715771D01*
X157932381Y-55715771D02*
X158075238Y-55715771D01*
X158075238Y-55715771D02*
X158170476Y-55763390D01*
X158170476Y-55763390D02*
X158218095Y-55811009D01*
X158218095Y-55811009D02*
X158265714Y-55906247D01*
X158265714Y-55906247D02*
X158265714Y-56144342D01*
X158265714Y-56144342D02*
X158218095Y-56239580D01*
X158218095Y-56239580D02*
X158170476Y-56287200D01*
X158170476Y-56287200D02*
X158075238Y-56334819D01*
X158075238Y-56334819D02*
X157789524Y-56334819D01*
X157789524Y-56334819D02*
X157694286Y-56287200D01*
X157694286Y-56287200D02*
X157646667Y-56239580D01*
X160034819Y-61221904D02*
X159034819Y-61221904D01*
X160034819Y-60650476D02*
X159463390Y-61079047D01*
X159034819Y-60650476D02*
X159606247Y-61221904D01*
X179110057Y-94075238D02*
X179062438Y-94170476D01*
X179062438Y-94170476D02*
X178967200Y-94265714D01*
X178967200Y-94265714D02*
X178824342Y-94408571D01*
X178824342Y-94408571D02*
X178776723Y-94503809D01*
X178776723Y-94503809D02*
X178776723Y-94599047D01*
X179014819Y-94551428D02*
X178967200Y-94646666D01*
X178967200Y-94646666D02*
X178871961Y-94741904D01*
X178871961Y-94741904D02*
X178681485Y-94789523D01*
X178681485Y-94789523D02*
X178348152Y-94789523D01*
X178348152Y-94789523D02*
X178157676Y-94741904D01*
X178157676Y-94741904D02*
X178062438Y-94646666D01*
X178062438Y-94646666D02*
X178014819Y-94551428D01*
X178014819Y-94551428D02*
X178014819Y-94360952D01*
X178014819Y-94360952D02*
X178062438Y-94265714D01*
X178062438Y-94265714D02*
X178157676Y-94170476D01*
X178157676Y-94170476D02*
X178348152Y-94122857D01*
X178348152Y-94122857D02*
X178681485Y-94122857D01*
X178681485Y-94122857D02*
X178871961Y-94170476D01*
X178871961Y-94170476D02*
X178967200Y-94265714D01*
X178967200Y-94265714D02*
X179014819Y-94360952D01*
X179014819Y-94360952D02*
X179014819Y-94551428D01*
X179014819Y-93170476D02*
X179014819Y-93741904D01*
X179014819Y-93456190D02*
X178014819Y-93456190D01*
X178014819Y-93456190D02*
X178157676Y-93551428D01*
X178157676Y-93551428D02*
X178252914Y-93646666D01*
X178252914Y-93646666D02*
X178300533Y-93741904D01*
X152950057Y-96615238D02*
X152902438Y-96710476D01*
X152902438Y-96710476D02*
X152807200Y-96805714D01*
X152807200Y-96805714D02*
X152664342Y-96948571D01*
X152664342Y-96948571D02*
X152616723Y-97043809D01*
X152616723Y-97043809D02*
X152616723Y-97139047D01*
X152854819Y-97091428D02*
X152807200Y-97186666D01*
X152807200Y-97186666D02*
X152711961Y-97281904D01*
X152711961Y-97281904D02*
X152521485Y-97329523D01*
X152521485Y-97329523D02*
X152188152Y-97329523D01*
X152188152Y-97329523D02*
X151997676Y-97281904D01*
X151997676Y-97281904D02*
X151902438Y-97186666D01*
X151902438Y-97186666D02*
X151854819Y-97091428D01*
X151854819Y-97091428D02*
X151854819Y-96900952D01*
X151854819Y-96900952D02*
X151902438Y-96805714D01*
X151902438Y-96805714D02*
X151997676Y-96710476D01*
X151997676Y-96710476D02*
X152188152Y-96662857D01*
X152188152Y-96662857D02*
X152521485Y-96662857D01*
X152521485Y-96662857D02*
X152711961Y-96710476D01*
X152711961Y-96710476D02*
X152807200Y-96805714D01*
X152807200Y-96805714D02*
X152854819Y-96900952D01*
X152854819Y-96900952D02*
X152854819Y-97091428D01*
X152188152Y-95805714D02*
X152854819Y-95805714D01*
X151807200Y-96043809D02*
X152521485Y-96281904D01*
X152521485Y-96281904D02*
X152521485Y-95662857D01*
X170154819Y-66878094D02*
X169154819Y-66878094D01*
X169154819Y-66878094D02*
X169154819Y-66639999D01*
X169154819Y-66639999D02*
X169202438Y-66497142D01*
X169202438Y-66497142D02*
X169297676Y-66401904D01*
X169297676Y-66401904D02*
X169392914Y-66354285D01*
X169392914Y-66354285D02*
X169583390Y-66306666D01*
X169583390Y-66306666D02*
X169726247Y-66306666D01*
X169726247Y-66306666D02*
X169916723Y-66354285D01*
X169916723Y-66354285D02*
X170011961Y-66401904D01*
X170011961Y-66401904D02*
X170107200Y-66497142D01*
X170107200Y-66497142D02*
X170154819Y-66639999D01*
X170154819Y-66639999D02*
X170154819Y-66878094D01*
X170154819Y-65354285D02*
X170154819Y-65925713D01*
X170154819Y-65639999D02*
X169154819Y-65639999D01*
X169154819Y-65639999D02*
X169297676Y-65735237D01*
X169297676Y-65735237D02*
X169392914Y-65830475D01*
X169392914Y-65830475D02*
X169440533Y-65925713D01*
X169784819Y-61321904D02*
X168784819Y-61321904D01*
X169784819Y-60750476D02*
X169213390Y-61179047D01*
X168784819Y-60750476D02*
X169356247Y-61321904D01*
X141906666Y-58174819D02*
X141906666Y-58889104D01*
X141906666Y-58889104D02*
X141859047Y-59031961D01*
X141859047Y-59031961D02*
X141763809Y-59127200D01*
X141763809Y-59127200D02*
X141620952Y-59174819D01*
X141620952Y-59174819D02*
X141525714Y-59174819D01*
X142906666Y-59174819D02*
X142335238Y-59174819D01*
X142620952Y-59174819D02*
X142620952Y-58174819D01*
X142620952Y-58174819D02*
X142525714Y-58317676D01*
X142525714Y-58317676D02*
X142430476Y-58412914D01*
X142430476Y-58412914D02*
X142335238Y-58460533D01*
X94764700Y-92683332D02*
X94812319Y-92540475D01*
X94812319Y-92540475D02*
X94812319Y-92302380D01*
X94812319Y-92302380D02*
X94764700Y-92207142D01*
X94764700Y-92207142D02*
X94717080Y-92159523D01*
X94717080Y-92159523D02*
X94621842Y-92111904D01*
X94621842Y-92111904D02*
X94526604Y-92111904D01*
X94526604Y-92111904D02*
X94431366Y-92159523D01*
X94431366Y-92159523D02*
X94383747Y-92207142D01*
X94383747Y-92207142D02*
X94336128Y-92302380D01*
X94336128Y-92302380D02*
X94288509Y-92492856D01*
X94288509Y-92492856D02*
X94240890Y-92588094D01*
X94240890Y-92588094D02*
X94193271Y-92635713D01*
X94193271Y-92635713D02*
X94098033Y-92683332D01*
X94098033Y-92683332D02*
X94002795Y-92683332D01*
X94002795Y-92683332D02*
X93907557Y-92635713D01*
X93907557Y-92635713D02*
X93859938Y-92588094D01*
X93859938Y-92588094D02*
X93812319Y-92492856D01*
X93812319Y-92492856D02*
X93812319Y-92254761D01*
X93812319Y-92254761D02*
X93859938Y-92111904D01*
X93812319Y-91778570D02*
X94812319Y-91540475D01*
X94812319Y-91540475D02*
X94098033Y-91349999D01*
X94098033Y-91349999D02*
X94812319Y-91159523D01*
X94812319Y-91159523D02*
X93812319Y-90921428D01*
X94812319Y-90016666D02*
X94812319Y-90588094D01*
X94812319Y-90302380D02*
X93812319Y-90302380D01*
X93812319Y-90302380D02*
X93955176Y-90397618D01*
X93955176Y-90397618D02*
X94050414Y-90492856D01*
X94050414Y-90492856D02*
X94098033Y-90588094D01*
X123713333Y-97484819D02*
X123380000Y-97008628D01*
X123141905Y-97484819D02*
X123141905Y-96484819D01*
X123141905Y-96484819D02*
X123522857Y-96484819D01*
X123522857Y-96484819D02*
X123618095Y-96532438D01*
X123618095Y-96532438D02*
X123665714Y-96580057D01*
X123665714Y-96580057D02*
X123713333Y-96675295D01*
X123713333Y-96675295D02*
X123713333Y-96818152D01*
X123713333Y-96818152D02*
X123665714Y-96913390D01*
X123665714Y-96913390D02*
X123618095Y-96961009D01*
X123618095Y-96961009D02*
X123522857Y-97008628D01*
X123522857Y-97008628D02*
X123141905Y-97008628D01*
X124094286Y-96580057D02*
X124141905Y-96532438D01*
X124141905Y-96532438D02*
X124237143Y-96484819D01*
X124237143Y-96484819D02*
X124475238Y-96484819D01*
X124475238Y-96484819D02*
X124570476Y-96532438D01*
X124570476Y-96532438D02*
X124618095Y-96580057D01*
X124618095Y-96580057D02*
X124665714Y-96675295D01*
X124665714Y-96675295D02*
X124665714Y-96770533D01*
X124665714Y-96770533D02*
X124618095Y-96913390D01*
X124618095Y-96913390D02*
X124046667Y-97484819D01*
X124046667Y-97484819D02*
X124665714Y-97484819D01*
X125828095Y-81384819D02*
X125828095Y-82194342D01*
X125828095Y-82194342D02*
X125875714Y-82289580D01*
X125875714Y-82289580D02*
X125923333Y-82337200D01*
X125923333Y-82337200D02*
X126018571Y-82384819D01*
X126018571Y-82384819D02*
X126209047Y-82384819D01*
X126209047Y-82384819D02*
X126304285Y-82337200D01*
X126304285Y-82337200D02*
X126351904Y-82289580D01*
X126351904Y-82289580D02*
X126399523Y-82194342D01*
X126399523Y-82194342D02*
X126399523Y-81384819D01*
X127304285Y-81718152D02*
X127304285Y-82384819D01*
X127066190Y-81337200D02*
X126828095Y-82051485D01*
X126828095Y-82051485D02*
X127447142Y-82051485D01*
X141628095Y-82524819D02*
X141628095Y-83334342D01*
X141628095Y-83334342D02*
X141675714Y-83429580D01*
X141675714Y-83429580D02*
X141723333Y-83477200D01*
X141723333Y-83477200D02*
X141818571Y-83524819D01*
X141818571Y-83524819D02*
X142009047Y-83524819D01*
X142009047Y-83524819D02*
X142104285Y-83477200D01*
X142104285Y-83477200D02*
X142151904Y-83429580D01*
X142151904Y-83429580D02*
X142199523Y-83334342D01*
X142199523Y-83334342D02*
X142199523Y-82524819D01*
X142628095Y-82620057D02*
X142675714Y-82572438D01*
X142675714Y-82572438D02*
X142770952Y-82524819D01*
X142770952Y-82524819D02*
X143009047Y-82524819D01*
X143009047Y-82524819D02*
X143104285Y-82572438D01*
X143104285Y-82572438D02*
X143151904Y-82620057D01*
X143151904Y-82620057D02*
X143199523Y-82715295D01*
X143199523Y-82715295D02*
X143199523Y-82810533D01*
X143199523Y-82810533D02*
X143151904Y-82953390D01*
X143151904Y-82953390D02*
X142580476Y-83524819D01*
X142580476Y-83524819D02*
X143199523Y-83524819D01*
X142073333Y-107134819D02*
X141740000Y-106658628D01*
X141501905Y-107134819D02*
X141501905Y-106134819D01*
X141501905Y-106134819D02*
X141882857Y-106134819D01*
X141882857Y-106134819D02*
X141978095Y-106182438D01*
X141978095Y-106182438D02*
X142025714Y-106230057D01*
X142025714Y-106230057D02*
X142073333Y-106325295D01*
X142073333Y-106325295D02*
X142073333Y-106468152D01*
X142073333Y-106468152D02*
X142025714Y-106563390D01*
X142025714Y-106563390D02*
X141978095Y-106611009D01*
X141978095Y-106611009D02*
X141882857Y-106658628D01*
X141882857Y-106658628D02*
X141501905Y-106658628D01*
X142978095Y-106134819D02*
X142501905Y-106134819D01*
X142501905Y-106134819D02*
X142454286Y-106611009D01*
X142454286Y-106611009D02*
X142501905Y-106563390D01*
X142501905Y-106563390D02*
X142597143Y-106515771D01*
X142597143Y-106515771D02*
X142835238Y-106515771D01*
X142835238Y-106515771D02*
X142930476Y-106563390D01*
X142930476Y-106563390D02*
X142978095Y-106611009D01*
X142978095Y-106611009D02*
X143025714Y-106706247D01*
X143025714Y-106706247D02*
X143025714Y-106944342D01*
X143025714Y-106944342D02*
X142978095Y-107039580D01*
X142978095Y-107039580D02*
X142930476Y-107087200D01*
X142930476Y-107087200D02*
X142835238Y-107134819D01*
X142835238Y-107134819D02*
X142597143Y-107134819D01*
X142597143Y-107134819D02*
X142501905Y-107087200D01*
X142501905Y-107087200D02*
X142454286Y-107039580D01*
X98789761Y-73299819D02*
X98456428Y-72823628D01*
X98218333Y-73299819D02*
X98218333Y-72299819D01*
X98218333Y-72299819D02*
X98599285Y-72299819D01*
X98599285Y-72299819D02*
X98694523Y-72347438D01*
X98694523Y-72347438D02*
X98742142Y-72395057D01*
X98742142Y-72395057D02*
X98789761Y-72490295D01*
X98789761Y-72490295D02*
X98789761Y-72633152D01*
X98789761Y-72633152D02*
X98742142Y-72728390D01*
X98742142Y-72728390D02*
X98694523Y-72776009D01*
X98694523Y-72776009D02*
X98599285Y-72823628D01*
X98599285Y-72823628D02*
X98218333Y-72823628D01*
X99075476Y-72299819D02*
X99408809Y-73299819D01*
X99408809Y-73299819D02*
X99742142Y-72299819D01*
X100599285Y-73299819D02*
X100027857Y-73299819D01*
X100313571Y-73299819D02*
X100313571Y-72299819D01*
X100313571Y-72299819D02*
X100218333Y-72442676D01*
X100218333Y-72442676D02*
X100123095Y-72537914D01*
X100123095Y-72537914D02*
X100027857Y-72585533D01*
X116506666Y-60414819D02*
X116506666Y-61129104D01*
X116506666Y-61129104D02*
X116459047Y-61271961D01*
X116459047Y-61271961D02*
X116363809Y-61367200D01*
X116363809Y-61367200D02*
X116220952Y-61414819D01*
X116220952Y-61414819D02*
X116125714Y-61414819D01*
X116935238Y-60510057D02*
X116982857Y-60462438D01*
X116982857Y-60462438D02*
X117078095Y-60414819D01*
X117078095Y-60414819D02*
X117316190Y-60414819D01*
X117316190Y-60414819D02*
X117411428Y-60462438D01*
X117411428Y-60462438D02*
X117459047Y-60510057D01*
X117459047Y-60510057D02*
X117506666Y-60605295D01*
X117506666Y-60605295D02*
X117506666Y-60700533D01*
X117506666Y-60700533D02*
X117459047Y-60843390D01*
X117459047Y-60843390D02*
X116887619Y-61414819D01*
X116887619Y-61414819D02*
X117506666Y-61414819D01*
X129833333Y-102659580D02*
X129785714Y-102707200D01*
X129785714Y-102707200D02*
X129642857Y-102754819D01*
X129642857Y-102754819D02*
X129547619Y-102754819D01*
X129547619Y-102754819D02*
X129404762Y-102707200D01*
X129404762Y-102707200D02*
X129309524Y-102611961D01*
X129309524Y-102611961D02*
X129261905Y-102516723D01*
X129261905Y-102516723D02*
X129214286Y-102326247D01*
X129214286Y-102326247D02*
X129214286Y-102183390D01*
X129214286Y-102183390D02*
X129261905Y-101992914D01*
X129261905Y-101992914D02*
X129309524Y-101897676D01*
X129309524Y-101897676D02*
X129404762Y-101802438D01*
X129404762Y-101802438D02*
X129547619Y-101754819D01*
X129547619Y-101754819D02*
X129642857Y-101754819D01*
X129642857Y-101754819D02*
X129785714Y-101802438D01*
X129785714Y-101802438D02*
X129833333Y-101850057D01*
X130785714Y-102754819D02*
X130214286Y-102754819D01*
X130500000Y-102754819D02*
X130500000Y-101754819D01*
X130500000Y-101754819D02*
X130404762Y-101897676D01*
X130404762Y-101897676D02*
X130309524Y-101992914D01*
X130309524Y-101992914D02*
X130214286Y-102040533D01*
X162464761Y-102150057D02*
X162369523Y-102102438D01*
X162369523Y-102102438D02*
X162274285Y-102007200D01*
X162274285Y-102007200D02*
X162131428Y-101864342D01*
X162131428Y-101864342D02*
X162036190Y-101816723D01*
X162036190Y-101816723D02*
X161940952Y-101816723D01*
X161988571Y-102054819D02*
X161893333Y-102007200D01*
X161893333Y-102007200D02*
X161798095Y-101911961D01*
X161798095Y-101911961D02*
X161750476Y-101721485D01*
X161750476Y-101721485D02*
X161750476Y-101388152D01*
X161750476Y-101388152D02*
X161798095Y-101197676D01*
X161798095Y-101197676D02*
X161893333Y-101102438D01*
X161893333Y-101102438D02*
X161988571Y-101054819D01*
X161988571Y-101054819D02*
X162179047Y-101054819D01*
X162179047Y-101054819D02*
X162274285Y-101102438D01*
X162274285Y-101102438D02*
X162369523Y-101197676D01*
X162369523Y-101197676D02*
X162417142Y-101388152D01*
X162417142Y-101388152D02*
X162417142Y-101721485D01*
X162417142Y-101721485D02*
X162369523Y-101911961D01*
X162369523Y-101911961D02*
X162274285Y-102007200D01*
X162274285Y-102007200D02*
X162179047Y-102054819D01*
X162179047Y-102054819D02*
X161988571Y-102054819D01*
X162750476Y-101054819D02*
X163369523Y-101054819D01*
X163369523Y-101054819D02*
X163036190Y-101435771D01*
X163036190Y-101435771D02*
X163179047Y-101435771D01*
X163179047Y-101435771D02*
X163274285Y-101483390D01*
X163274285Y-101483390D02*
X163321904Y-101531009D01*
X163321904Y-101531009D02*
X163369523Y-101626247D01*
X163369523Y-101626247D02*
X163369523Y-101864342D01*
X163369523Y-101864342D02*
X163321904Y-101959580D01*
X163321904Y-101959580D02*
X163274285Y-102007200D01*
X163274285Y-102007200D02*
X163179047Y-102054819D01*
X163179047Y-102054819D02*
X162893333Y-102054819D01*
X162893333Y-102054819D02*
X162798095Y-102007200D01*
X162798095Y-102007200D02*
X162750476Y-101959580D01*
X147153333Y-107134819D02*
X146820000Y-106658628D01*
X146581905Y-107134819D02*
X146581905Y-106134819D01*
X146581905Y-106134819D02*
X146962857Y-106134819D01*
X146962857Y-106134819D02*
X147058095Y-106182438D01*
X147058095Y-106182438D02*
X147105714Y-106230057D01*
X147105714Y-106230057D02*
X147153333Y-106325295D01*
X147153333Y-106325295D02*
X147153333Y-106468152D01*
X147153333Y-106468152D02*
X147105714Y-106563390D01*
X147105714Y-106563390D02*
X147058095Y-106611009D01*
X147058095Y-106611009D02*
X146962857Y-106658628D01*
X146962857Y-106658628D02*
X146581905Y-106658628D01*
X148010476Y-106134819D02*
X147820000Y-106134819D01*
X147820000Y-106134819D02*
X147724762Y-106182438D01*
X147724762Y-106182438D02*
X147677143Y-106230057D01*
X147677143Y-106230057D02*
X147581905Y-106372914D01*
X147581905Y-106372914D02*
X147534286Y-106563390D01*
X147534286Y-106563390D02*
X147534286Y-106944342D01*
X147534286Y-106944342D02*
X147581905Y-107039580D01*
X147581905Y-107039580D02*
X147629524Y-107087200D01*
X147629524Y-107087200D02*
X147724762Y-107134819D01*
X147724762Y-107134819D02*
X147915238Y-107134819D01*
X147915238Y-107134819D02*
X148010476Y-107087200D01*
X148010476Y-107087200D02*
X148058095Y-107039580D01*
X148058095Y-107039580D02*
X148105714Y-106944342D01*
X148105714Y-106944342D02*
X148105714Y-106706247D01*
X148105714Y-106706247D02*
X148058095Y-106611009D01*
X148058095Y-106611009D02*
X148010476Y-106563390D01*
X148010476Y-106563390D02*
X147915238Y-106515771D01*
X147915238Y-106515771D02*
X147724762Y-106515771D01*
X147724762Y-106515771D02*
X147629524Y-106563390D01*
X147629524Y-106563390D02*
X147581905Y-106611009D01*
X147581905Y-106611009D02*
X147534286Y-106706247D01*
X131659580Y-97466666D02*
X131707200Y-97514285D01*
X131707200Y-97514285D02*
X131754819Y-97657142D01*
X131754819Y-97657142D02*
X131754819Y-97752380D01*
X131754819Y-97752380D02*
X131707200Y-97895237D01*
X131707200Y-97895237D02*
X131611961Y-97990475D01*
X131611961Y-97990475D02*
X131516723Y-98038094D01*
X131516723Y-98038094D02*
X131326247Y-98085713D01*
X131326247Y-98085713D02*
X131183390Y-98085713D01*
X131183390Y-98085713D02*
X130992914Y-98038094D01*
X130992914Y-98038094D02*
X130897676Y-97990475D01*
X130897676Y-97990475D02*
X130802438Y-97895237D01*
X130802438Y-97895237D02*
X130754819Y-97752380D01*
X130754819Y-97752380D02*
X130754819Y-97657142D01*
X130754819Y-97657142D02*
X130802438Y-97514285D01*
X130802438Y-97514285D02*
X130850057Y-97466666D01*
X130850057Y-97085713D02*
X130802438Y-97038094D01*
X130802438Y-97038094D02*
X130754819Y-96942856D01*
X130754819Y-96942856D02*
X130754819Y-96704761D01*
X130754819Y-96704761D02*
X130802438Y-96609523D01*
X130802438Y-96609523D02*
X130850057Y-96561904D01*
X130850057Y-96561904D02*
X130945295Y-96514285D01*
X130945295Y-96514285D02*
X131040533Y-96514285D01*
X131040533Y-96514285D02*
X131183390Y-96561904D01*
X131183390Y-96561904D02*
X131754819Y-97133332D01*
X131754819Y-97133332D02*
X131754819Y-96514285D01*
X121158095Y-85814819D02*
X121158095Y-86624342D01*
X121158095Y-86624342D02*
X121205714Y-86719580D01*
X121205714Y-86719580D02*
X121253333Y-86767200D01*
X121253333Y-86767200D02*
X121348571Y-86814819D01*
X121348571Y-86814819D02*
X121539047Y-86814819D01*
X121539047Y-86814819D02*
X121634285Y-86767200D01*
X121634285Y-86767200D02*
X121681904Y-86719580D01*
X121681904Y-86719580D02*
X121729523Y-86624342D01*
X121729523Y-86624342D02*
X121729523Y-85814819D01*
X122729523Y-86814819D02*
X122158095Y-86814819D01*
X122443809Y-86814819D02*
X122443809Y-85814819D01*
X122443809Y-85814819D02*
X122348571Y-85957676D01*
X122348571Y-85957676D02*
X122253333Y-86052914D01*
X122253333Y-86052914D02*
X122158095Y-86100533D01*
X136993333Y-107134819D02*
X136660000Y-106658628D01*
X136421905Y-107134819D02*
X136421905Y-106134819D01*
X136421905Y-106134819D02*
X136802857Y-106134819D01*
X136802857Y-106134819D02*
X136898095Y-106182438D01*
X136898095Y-106182438D02*
X136945714Y-106230057D01*
X136945714Y-106230057D02*
X136993333Y-106325295D01*
X136993333Y-106325295D02*
X136993333Y-106468152D01*
X136993333Y-106468152D02*
X136945714Y-106563390D01*
X136945714Y-106563390D02*
X136898095Y-106611009D01*
X136898095Y-106611009D02*
X136802857Y-106658628D01*
X136802857Y-106658628D02*
X136421905Y-106658628D01*
X137850476Y-106468152D02*
X137850476Y-107134819D01*
X137612381Y-106087200D02*
X137374286Y-106801485D01*
X137374286Y-106801485D02*
X137993333Y-106801485D01*
X151661905Y-76654819D02*
X151661905Y-75654819D01*
X151661905Y-75654819D02*
X151900000Y-75654819D01*
X151900000Y-75654819D02*
X152042857Y-75702438D01*
X152042857Y-75702438D02*
X152138095Y-75797676D01*
X152138095Y-75797676D02*
X152185714Y-75892914D01*
X152185714Y-75892914D02*
X152233333Y-76083390D01*
X152233333Y-76083390D02*
X152233333Y-76226247D01*
X152233333Y-76226247D02*
X152185714Y-76416723D01*
X152185714Y-76416723D02*
X152138095Y-76511961D01*
X152138095Y-76511961D02*
X152042857Y-76607200D01*
X152042857Y-76607200D02*
X151900000Y-76654819D01*
X151900000Y-76654819D02*
X151661905Y-76654819D01*
X153090476Y-75988152D02*
X153090476Y-76654819D01*
X152852381Y-75607200D02*
X152614286Y-76321485D01*
X152614286Y-76321485D02*
X153233333Y-76321485D01*
X155784819Y-61221904D02*
X154784819Y-61221904D01*
X155784819Y-60650476D02*
X155213390Y-61079047D01*
X154784819Y-60650476D02*
X155356247Y-61221904D01*
X164654819Y-66778094D02*
X163654819Y-66778094D01*
X163654819Y-66778094D02*
X163654819Y-66539999D01*
X163654819Y-66539999D02*
X163702438Y-66397142D01*
X163702438Y-66397142D02*
X163797676Y-66301904D01*
X163797676Y-66301904D02*
X163892914Y-66254285D01*
X163892914Y-66254285D02*
X164083390Y-66206666D01*
X164083390Y-66206666D02*
X164226247Y-66206666D01*
X164226247Y-66206666D02*
X164416723Y-66254285D01*
X164416723Y-66254285D02*
X164511961Y-66301904D01*
X164511961Y-66301904D02*
X164607200Y-66397142D01*
X164607200Y-66397142D02*
X164654819Y-66539999D01*
X164654819Y-66539999D02*
X164654819Y-66778094D01*
X163750057Y-65825713D02*
X163702438Y-65778094D01*
X163702438Y-65778094D02*
X163654819Y-65682856D01*
X163654819Y-65682856D02*
X163654819Y-65444761D01*
X163654819Y-65444761D02*
X163702438Y-65349523D01*
X163702438Y-65349523D02*
X163750057Y-65301904D01*
X163750057Y-65301904D02*
X163845295Y-65254285D01*
X163845295Y-65254285D02*
X163940533Y-65254285D01*
X163940533Y-65254285D02*
X164083390Y-65301904D01*
X164083390Y-65301904D02*
X164654819Y-65873332D01*
X164654819Y-65873332D02*
X164654819Y-65254285D01*
X164284819Y-61221904D02*
X163284819Y-61221904D01*
X164284819Y-60650476D02*
X163713390Y-61079047D01*
X163284819Y-60650476D02*
X163856247Y-61221904D01*
X144433333Y-85684819D02*
X144100000Y-85208628D01*
X143861905Y-85684819D02*
X143861905Y-84684819D01*
X143861905Y-84684819D02*
X144242857Y-84684819D01*
X144242857Y-84684819D02*
X144338095Y-84732438D01*
X144338095Y-84732438D02*
X144385714Y-84780057D01*
X144385714Y-84780057D02*
X144433333Y-84875295D01*
X144433333Y-84875295D02*
X144433333Y-85018152D01*
X144433333Y-85018152D02*
X144385714Y-85113390D01*
X144385714Y-85113390D02*
X144338095Y-85161009D01*
X144338095Y-85161009D02*
X144242857Y-85208628D01*
X144242857Y-85208628D02*
X143861905Y-85208628D01*
X144766667Y-84684819D02*
X145385714Y-84684819D01*
X145385714Y-84684819D02*
X145052381Y-85065771D01*
X145052381Y-85065771D02*
X145195238Y-85065771D01*
X145195238Y-85065771D02*
X145290476Y-85113390D01*
X145290476Y-85113390D02*
X145338095Y-85161009D01*
X145338095Y-85161009D02*
X145385714Y-85256247D01*
X145385714Y-85256247D02*
X145385714Y-85494342D01*
X145385714Y-85494342D02*
X145338095Y-85589580D01*
X145338095Y-85589580D02*
X145290476Y-85637200D01*
X145290476Y-85637200D02*
X145195238Y-85684819D01*
X145195238Y-85684819D02*
X144909524Y-85684819D01*
X144909524Y-85684819D02*
X144814286Y-85637200D01*
X144814286Y-85637200D02*
X144766667Y-85589580D01*
X167544761Y-102150057D02*
X167449523Y-102102438D01*
X167449523Y-102102438D02*
X167354285Y-102007200D01*
X167354285Y-102007200D02*
X167211428Y-101864342D01*
X167211428Y-101864342D02*
X167116190Y-101816723D01*
X167116190Y-101816723D02*
X167020952Y-101816723D01*
X167068571Y-102054819D02*
X166973333Y-102007200D01*
X166973333Y-102007200D02*
X166878095Y-101911961D01*
X166878095Y-101911961D02*
X166830476Y-101721485D01*
X166830476Y-101721485D02*
X166830476Y-101388152D01*
X166830476Y-101388152D02*
X166878095Y-101197676D01*
X166878095Y-101197676D02*
X166973333Y-101102438D01*
X166973333Y-101102438D02*
X167068571Y-101054819D01*
X167068571Y-101054819D02*
X167259047Y-101054819D01*
X167259047Y-101054819D02*
X167354285Y-101102438D01*
X167354285Y-101102438D02*
X167449523Y-101197676D01*
X167449523Y-101197676D02*
X167497142Y-101388152D01*
X167497142Y-101388152D02*
X167497142Y-101721485D01*
X167497142Y-101721485D02*
X167449523Y-101911961D01*
X167449523Y-101911961D02*
X167354285Y-102007200D01*
X167354285Y-102007200D02*
X167259047Y-102054819D01*
X167259047Y-102054819D02*
X167068571Y-102054819D01*
X167878095Y-101150057D02*
X167925714Y-101102438D01*
X167925714Y-101102438D02*
X168020952Y-101054819D01*
X168020952Y-101054819D02*
X168259047Y-101054819D01*
X168259047Y-101054819D02*
X168354285Y-101102438D01*
X168354285Y-101102438D02*
X168401904Y-101150057D01*
X168401904Y-101150057D02*
X168449523Y-101245295D01*
X168449523Y-101245295D02*
X168449523Y-101340533D01*
X168449523Y-101340533D02*
X168401904Y-101483390D01*
X168401904Y-101483390D02*
X167830476Y-102054819D01*
X167830476Y-102054819D02*
X168449523Y-102054819D01*
%TO.C,D3*%
D11*
X157480000Y-62300000D02*
X157480000Y-63320000D01*
X157480000Y-69780000D02*
X157480000Y-68760000D01*
X158950000Y-64100000D02*
X156010000Y-64100000D01*
X158950000Y-64220000D02*
X156010000Y-64220000D01*
X158950000Y-64340000D02*
X156010000Y-64340000D01*
X156010000Y-63320000D02*
X158950000Y-63320000D01*
X158950000Y-68760000D01*
X156010000Y-68760000D01*
X156010000Y-63320000D01*
%TO.C,Q1*%
X173100000Y-88870000D02*
X177720000Y-88870000D01*
X173100000Y-99090000D02*
X173100000Y-88870000D01*
X176340000Y-88870000D02*
X176340000Y-99090000D01*
X177720000Y-88870000D02*
X177720000Y-99090000D01*
X177720000Y-92130000D02*
X176340000Y-92130000D01*
X177720000Y-95830000D02*
X176340000Y-95830000D01*
X177720000Y-99090000D02*
X173100000Y-99090000D01*
%TO.C,Q4*%
X155250000Y-88870000D02*
X159870000Y-88870000D01*
X155250000Y-99090000D02*
X155250000Y-88870000D01*
X158490000Y-88870000D02*
X158490000Y-99090000D01*
X159870000Y-88870000D02*
X159870000Y-99090000D01*
X159870000Y-92130000D02*
X158490000Y-92130000D01*
X159870000Y-95830000D02*
X158490000Y-95830000D01*
X159870000Y-99090000D02*
X155250000Y-99090000D01*
%TO.C,D1*%
X167230000Y-62400000D02*
X167230000Y-63420000D01*
X167230000Y-69880000D02*
X167230000Y-68860000D01*
X168700000Y-64200000D02*
X165760000Y-64200000D01*
X168700000Y-64320000D02*
X165760000Y-64320000D01*
X168700000Y-64440000D02*
X165760000Y-64440000D01*
X165760000Y-63420000D02*
X168700000Y-63420000D01*
X168700000Y-68860000D01*
X165760000Y-68860000D01*
X165760000Y-63420000D01*
%TO.C,J1*%
X129420000Y-47680000D02*
X152100000Y-47680000D01*
X129420000Y-57720000D02*
X129420000Y-47680000D01*
X152700000Y-47680000D02*
X155060000Y-47680000D01*
X155060000Y-47680000D02*
X155060000Y-57720000D01*
X155060000Y-48300000D02*
X129420000Y-48300000D01*
X155060000Y-49800000D02*
X129420000Y-49800000D01*
X155060000Y-54700000D02*
X129420000Y-54700000D01*
X155060000Y-57720000D02*
X129420000Y-57720000D01*
X152400000Y-47680000D02*
X151960000Y-47070000D01*
X152840000Y-47070000D01*
X152400000Y-47680000D01*
G36*
X152400000Y-47680000D02*
G01*
X151960000Y-47070000D01*
X152840000Y-47070000D01*
X152400000Y-47680000D01*
G37*
%TO.C,SW1*%
X95507500Y-87000000D02*
X99707500Y-87000000D01*
X95507500Y-88200000D02*
X95507500Y-87000000D01*
X95507500Y-95850000D02*
X95507500Y-96200000D01*
X95507500Y-96200000D02*
X99707500Y-96200000D01*
X99707500Y-87000000D02*
X99707500Y-88200000D01*
X99707500Y-96200000D02*
X99707500Y-95000000D01*
X95507500Y-95100000D02*
X95507500Y-95580000D01*
X95027500Y-95100000D01*
X95507500Y-95100000D01*
G36*
X95507500Y-95580000D02*
G01*
X95027500Y-95100000D01*
X95507500Y-95100000D01*
X95507500Y-95580000D01*
G37*
%TO.C,R2*%
X119840000Y-99400000D02*
X120610000Y-99400000D01*
X127920000Y-99400000D02*
X127150000Y-99400000D01*
X120610000Y-98030000D02*
X127150000Y-98030000D01*
X127150000Y-100770000D01*
X120610000Y-100770000D01*
X120610000Y-98030000D01*
%TO.C,U4*%
X123940000Y-63030000D02*
X123940000Y-80930000D01*
X123940000Y-80930000D02*
X125590000Y-80930000D01*
X127590000Y-80930000D02*
X129240000Y-80930000D01*
X129240000Y-63030000D02*
X123940000Y-63030000D01*
X129240000Y-80930000D02*
X129240000Y-63030000D01*
X125590000Y-80930000D02*
G75*
G02*
X127590000Y-80930000I1000000J0D01*
G01*
%TO.C,U2*%
X139740000Y-61630000D02*
X139740000Y-82070000D01*
X139740000Y-82070000D02*
X141390000Y-82070000D01*
X143390000Y-82070000D02*
X145040000Y-82070000D01*
X145040000Y-61630000D02*
X139740000Y-61630000D01*
X145040000Y-82070000D02*
X145040000Y-61630000D01*
X141390000Y-82070000D02*
G75*
G02*
X143390000Y-82070000I1000000J0D01*
G01*
%TO.C,R5*%
X143550000Y-93680000D02*
X143550000Y-94450000D01*
X143550000Y-101760000D02*
X143550000Y-100990000D01*
X142180000Y-94450000D02*
X144920000Y-94450000D01*
X144920000Y-100990000D01*
X142180000Y-100990000D01*
X142180000Y-94450000D01*
%TO.C,RV1*%
X94510000Y-73985000D02*
X104260000Y-73985000D01*
X94510000Y-83735000D02*
X94510000Y-73985000D01*
X104260000Y-73985000D02*
X104260000Y-83735000D01*
X104260000Y-83735000D02*
X94510000Y-83735000D01*
%TO.C,J2*%
X111380000Y-48280000D02*
X126860000Y-48280000D01*
X111380000Y-51300000D02*
X126860000Y-51300000D01*
X111380000Y-56200000D02*
X126860000Y-56200000D01*
X111380000Y-57700000D02*
X126860000Y-57700000D01*
X111380000Y-58320000D02*
X111380000Y-48280000D01*
X113740000Y-58320000D02*
X111380000Y-58320000D01*
X126860000Y-48280000D02*
X126860000Y-58320000D01*
X126860000Y-58320000D02*
X114340000Y-58320000D01*
X114040000Y-58320000D02*
X114480000Y-58930000D01*
X113600000Y-58930000D01*
X114040000Y-58320000D01*
G36*
X114480000Y-58930000D02*
G01*
X113600000Y-58930000D01*
X114040000Y-58320000D01*
X114480000Y-58930000D01*
G37*
%TO.C,C1*%
X127380000Y-103430000D02*
X132620000Y-103430000D01*
X127380000Y-103767000D02*
X127380000Y-103430000D01*
X127380000Y-106170000D02*
X127380000Y-105833000D01*
X132620000Y-103430000D02*
X132620000Y-103767000D01*
X132620000Y-105833000D02*
X132620000Y-106170000D01*
X132620000Y-106170000D02*
X127380000Y-106170000D01*
%TO.C,Q3*%
X161200000Y-88870000D02*
X165820000Y-88870000D01*
X161200000Y-99090000D02*
X161200000Y-88870000D01*
X164440000Y-88870000D02*
X164440000Y-99090000D01*
X165820000Y-88870000D02*
X165820000Y-99090000D01*
X165820000Y-92130000D02*
X164440000Y-92130000D01*
X165820000Y-95830000D02*
X164440000Y-95830000D01*
X165820000Y-99090000D02*
X161200000Y-99090000D01*
%TO.C,R6*%
X147600000Y-93680000D02*
X147600000Y-94450000D01*
X147600000Y-101760000D02*
X147600000Y-100990000D01*
X146230000Y-94450000D02*
X148970000Y-94450000D01*
X148970000Y-100990000D01*
X146230000Y-100990000D01*
X146230000Y-94450000D01*
%TO.C,C2*%
X132430000Y-94680000D02*
X132767000Y-94680000D01*
X132430000Y-99920000D02*
X132430000Y-94680000D01*
X132767000Y-99920000D02*
X132430000Y-99920000D01*
X134833000Y-94680000D02*
X135170000Y-94680000D01*
X135170000Y-94680000D02*
X135170000Y-99920000D01*
X135170000Y-99920000D02*
X134833000Y-99920000D01*
%TO.C,U1*%
X123740000Y-87840000D02*
X127860000Y-87840000D01*
X123740000Y-87935000D02*
X123740000Y-87840000D01*
X123740000Y-92960000D02*
X123740000Y-92865000D01*
X127860000Y-87840000D02*
X127860000Y-87935000D01*
X127860000Y-92865000D02*
X127860000Y-92960000D01*
X127860000Y-92960000D02*
X123740000Y-92960000D01*
X123200000Y-87930000D02*
X122960000Y-87600000D01*
X123440000Y-87600000D01*
X123200000Y-87930000D01*
G36*
X123200000Y-87930000D02*
G01*
X122960000Y-87600000D01*
X123440000Y-87600000D01*
X123200000Y-87930000D01*
G37*
%TO.C,R4*%
X139500000Y-93680000D02*
X139500000Y-94450000D01*
X139500000Y-101760000D02*
X139500000Y-100990000D01*
X138130000Y-94450000D02*
X140870000Y-94450000D01*
X140870000Y-100990000D01*
X138130000Y-100990000D01*
X138130000Y-94450000D01*
%TO.C,D4*%
X153230000Y-62300000D02*
X153230000Y-63320000D01*
X153230000Y-69780000D02*
X153230000Y-68760000D01*
X154700000Y-64100000D02*
X151760000Y-64100000D01*
X154700000Y-64220000D02*
X151760000Y-64220000D01*
X154700000Y-64340000D02*
X151760000Y-64340000D01*
X151760000Y-63320000D02*
X154700000Y-63320000D01*
X154700000Y-68760000D01*
X151760000Y-68760000D01*
X151760000Y-63320000D01*
%TO.C,D2*%
X161730000Y-62300000D02*
X161730000Y-63320000D01*
X161730000Y-69780000D02*
X161730000Y-68760000D01*
X163200000Y-64100000D02*
X160260000Y-64100000D01*
X163200000Y-64220000D02*
X160260000Y-64220000D01*
X163200000Y-64340000D02*
X160260000Y-64340000D01*
X160260000Y-63320000D02*
X163200000Y-63320000D01*
X163200000Y-68760000D01*
X160260000Y-68760000D01*
X160260000Y-63320000D01*
%TO.C,R3*%
X140560000Y-87600000D02*
X141330000Y-87600000D01*
X148640000Y-87600000D02*
X147870000Y-87600000D01*
X141330000Y-86230000D02*
X147870000Y-86230000D01*
X147870000Y-88970000D01*
X141330000Y-88970000D01*
X141330000Y-86230000D01*
%TO.C,Q2*%
X167150000Y-88870000D02*
X171770000Y-88870000D01*
X167150000Y-99090000D02*
X167150000Y-88870000D01*
X170390000Y-88870000D02*
X170390000Y-99090000D01*
X171770000Y-88870000D02*
X171770000Y-99090000D01*
X171770000Y-92130000D02*
X170390000Y-92130000D01*
X171770000Y-95830000D02*
X170390000Y-95830000D01*
X171770000Y-99090000D02*
X167150000Y-99090000D01*
%TD*%
M02*
