%TF.GenerationSoftware,KiCad,Pcbnew,10.0.5*%
%TF.CreationDate,2026-09-14T06:49:11+03:00*%
%TF.ProjectId,Stepper_Motor_Driver,53746570-7065-4725-9f4d-6f746f725f44,rev?*%
%TF.SameCoordinates,Original*%
%TF.FileFunction,Soldermask,Bot*%
%TF.FilePolarity,Negative*%
%FSLAX46Y46*%
G04 Gerber Fmt 4.6, Leading zero omitted, Abs format (unit mm)*
G04 Created by KiCad (PCBNEW 10.0.5) date 2026-09-14 06:49:11*
%MOMM*%
%LPD*%
G01*
G04 APERTURE LIST*
G04 Aperture macros list*
%AMRoundRect*
0 Rectangle with rounded corners*
0 $1 Rounding radius*
0 $2 $3 $4 $5 $6 $7 $8 $9 X,Y pos of 4 corners*
0 Add a 4 corners polygon primitive as box body*
4,1,4,$2,$3,$4,$5,$6,$7,$8,$9,$2,$3,0*
0 Add four circle primitives for the rounded corners*
1,1,$1+$1,$2,$3*
1,1,$1+$1,$4,$5*
1,1,$1+$1,$6,$7*
1,1,$1+$1,$8,$9*
0 Add four rect primitives between the rounded corners*
20,1,$1+$1,$2,$3,$4,$5,0*
20,1,$1+$1,$4,$5,$6,$7,0*
20,1,$1+$1,$6,$7,$8,$9,0*
20,1,$1+$1,$8,$9,$2,$3,0*%
G04 Aperture macros list end*
%ADD10C,5.500000*%
%ADD11RoundRect,0.249999X-0.850001X0.850001X-0.850001X-0.850001X0.850001X-0.850001X0.850001X0.850001X0*%
%ADD12C,2.200000*%
%ADD13R,2.000000X1.905000*%
%ADD14O,2.000000X1.905000*%
%ADD15RoundRect,0.250000X1.050000X1.050000X-1.050000X1.050000X-1.050000X-1.050000X1.050000X-1.050000X0*%
%ADD16C,2.600000*%
%ADD17RoundRect,0.250000X0.450000X-0.450000X0.450000X0.450000X-0.450000X0.450000X-0.450000X-0.450000X0*%
%ADD18C,1.400000*%
%ADD19C,1.600000*%
%ADD20RoundRect,0.250000X0.550000X0.550000X-0.550000X0.550000X-0.550000X-0.550000X0.550000X-0.550000X0*%
%ADD21C,1.440000*%
%ADD22RoundRect,0.250000X-1.050000X-1.050000X1.050000X-1.050000X1.050000X1.050000X-1.050000X1.050000X0*%
G04 APERTURE END LIST*
D10*
%TO.C,H2*%
X101800000Y-109800000D03*
%TD*%
D11*
%TO.C,D3*%
X157480000Y-60960000D03*
D12*
X157480000Y-71120000D03*
%TD*%
D13*
%TO.C,Q1*%
X174460000Y-91440000D03*
D14*
X174460000Y-93980000D03*
X174460000Y-96520000D03*
%TD*%
D13*
%TO.C,Q4*%
X156610000Y-91440000D03*
D14*
X156610000Y-93980000D03*
X156610000Y-96520000D03*
%TD*%
D11*
%TO.C,D1*%
X167230000Y-61060000D03*
D12*
X167230000Y-71220000D03*
%TD*%
D15*
%TO.C,J1*%
X152400000Y-52400000D03*
D16*
X147320000Y-52400000D03*
X142240000Y-52400000D03*
X137160000Y-52400000D03*
X132080000Y-52400000D03*
%TD*%
D10*
%TO.C,H1*%
X172800000Y-109600000D03*
%TD*%
D17*
%TO.C,SW1*%
X95957500Y-94100000D03*
D18*
X95957500Y-91600000D03*
X95957500Y-89100000D03*
X99257500Y-89100000D03*
X99257500Y-91600000D03*
X99257500Y-94100000D03*
%TD*%
D19*
%TO.C,R2*%
X118800000Y-99400000D03*
X128960000Y-99400000D03*
%TD*%
D20*
%TO.C,U4*%
X130400000Y-79600000D03*
D19*
X130400000Y-77060000D03*
X130400000Y-74520000D03*
X130400000Y-71980000D03*
X130400000Y-69440000D03*
X130400000Y-66900000D03*
X130400000Y-64360000D03*
X122780000Y-64360000D03*
X122780000Y-66900000D03*
X122780000Y-69440000D03*
X122780000Y-71980000D03*
X122780000Y-74520000D03*
X122780000Y-77060000D03*
X122780000Y-79600000D03*
%TD*%
D20*
%TO.C,U2*%
X146200000Y-80740000D03*
D19*
X146200000Y-78200000D03*
X146200000Y-75660000D03*
X146200000Y-73120000D03*
X146200000Y-70580000D03*
X146200000Y-68040000D03*
X146200000Y-65500000D03*
X146200000Y-62960000D03*
X138580000Y-62960000D03*
X138580000Y-65500000D03*
X138580000Y-68040000D03*
X138580000Y-70580000D03*
X138580000Y-73120000D03*
X138580000Y-75660000D03*
X138580000Y-78200000D03*
X138580000Y-80740000D03*
%TD*%
%TO.C,R5*%
X143550000Y-102800000D03*
X143550000Y-92640000D03*
%TD*%
D21*
%TO.C,RV1*%
X99400000Y-81400000D03*
X101940000Y-78860000D03*
X99400000Y-76320000D03*
%TD*%
D22*
%TO.C,J2*%
X114040000Y-53600000D03*
D16*
X119120000Y-53600000D03*
X124200000Y-53600000D03*
%TD*%
D19*
%TO.C,C1*%
X127500000Y-104800000D03*
X132500000Y-104800000D03*
%TD*%
D13*
%TO.C,Q3*%
X162560000Y-91440000D03*
D14*
X162560000Y-93980000D03*
X162560000Y-96520000D03*
%TD*%
D10*
%TO.C,H3*%
X102800000Y-54600000D03*
%TD*%
D19*
%TO.C,R6*%
X147600000Y-102800000D03*
X147600000Y-92640000D03*
%TD*%
%TO.C,C2*%
X133800000Y-99800000D03*
X133800000Y-94800000D03*
%TD*%
D10*
%TO.C,H4*%
X172200000Y-53800000D03*
%TD*%
D19*
%TO.C,R4*%
X139500000Y-102800000D03*
X139500000Y-92640000D03*
%TD*%
D11*
%TO.C,D4*%
X153230000Y-60960000D03*
D12*
X153230000Y-71120000D03*
%TD*%
D11*
%TO.C,D2*%
X161730000Y-60960000D03*
D12*
X161730000Y-71120000D03*
%TD*%
D19*
%TO.C,R3*%
X139520000Y-87600000D03*
X149680000Y-87600000D03*
%TD*%
D13*
%TO.C,Q2*%
X168510000Y-91440000D03*
D14*
X168510000Y-93980000D03*
X168510000Y-96520000D03*
%TD*%
M02*
