M48
; DRILL file KiCad 10.0.5 date 2026-09-14T06:49:37
; FORMAT={-:-/ absolute / metric / decimal}
; #@! TF.CreationDate,2026-09-14T06:49:37+03:00
; #@! TF.GenerationSoftware,Kicad,Pcbnew,10.0.5
; #@! TF.FileFunction,Plated,1,2,PTH
FMAT,2
METRIC
; #@! TA.AperFunction,Plated,PTH,ViaDrill
T1C0.300
; #@! TA.AperFunction,Plated,PTH,ComponentDrill
T2C0.800
; #@! TA.AperFunction,Plated,PTH,ComponentDrill
T3C0.900
; #@! TA.AperFunction,Plated,PTH,ComponentDrill
T4C1.100
; #@! TA.AperFunction,Plated,PTH,ComponentDrill
T5C1.300
%
G90
G05
T1
X101.6Y-86.36
X101.6Y-96.52
X106.68Y-81.28
X111.76Y-86.36
X116.84Y-81.28
X116.84Y-91.44
X121.805Y-91.555
X121.878Y-90.658
X121.92Y-60.96
X124.868Y-95.77
X126.434Y-86.926
X127.0Y-55.88
X127.0Y-86.36
X127.0Y-91.44
X127.53Y-97.05
X128.275Y-92.305
X130.9Y-60.96
X131.28Y-76.2
X132.08Y-71.12
X132.08Y-76.2
X132.61Y-91.97
X137.16Y-91.44
X137.16Y-101.6
X142.24Y-76.2
X142.24Y-81.28
X142.24Y-86.36
X142.24Y-91.44
X147.371Y-71.145
X152.4Y-81.28
X152.4Y-86.36
X152.4Y-101.6
X153.496Y-64.944
X157.31Y-86.36
X157.31Y-89.987
X157.48Y-76.2
X157.48Y-101.6
X167.057Y-89.987
X172.72Y-86.36
T2
X99.4Y-76.32
X99.4Y-81.4
X101.94Y-78.86
X118.8Y-99.4
X122.78Y-64.36
X122.78Y-66.9
X122.78Y-69.44
X122.78Y-71.98
X122.78Y-74.52
X122.78Y-77.06
X122.78Y-79.6
X127.5Y-104.8
X128.96Y-99.4
X130.4Y-64.36
X130.4Y-66.9
X130.4Y-69.44
X130.4Y-71.98
X130.4Y-74.52
X130.4Y-77.06
X130.4Y-79.6
X132.5Y-104.8
X133.8Y-94.8
X133.8Y-99.8
X138.58Y-62.96
X138.58Y-65.5
X138.58Y-68.04
X138.58Y-70.58
X138.58Y-73.12
X138.58Y-75.66
X138.58Y-78.2
X138.58Y-80.74
X139.5Y-92.64
X139.5Y-102.8
X139.52Y-87.6
X143.55Y-92.64
X143.55Y-102.8
X146.2Y-62.96
X146.2Y-65.5
X146.2Y-68.04
X146.2Y-70.58
X146.2Y-73.12
X146.2Y-75.66
X146.2Y-78.2
X146.2Y-80.74
X147.6Y-92.64
X147.6Y-102.8
X149.68Y-87.6
T3
X95.957Y-89.1
X95.957Y-91.6
X95.957Y-94.1
X99.257Y-89.1
X99.257Y-91.6
X99.257Y-94.1
T4
X153.23Y-60.96
X153.23Y-71.12
X156.61Y-91.44
X156.61Y-93.98
X156.61Y-96.52
X157.48Y-60.96
X157.48Y-71.12
X161.73Y-60.96
X161.73Y-71.12
X162.56Y-91.44
X162.56Y-93.98
X162.56Y-96.52
X167.23Y-61.06
X167.23Y-71.22
X168.51Y-91.44
X168.51Y-93.98
X168.51Y-96.52
X174.46Y-91.44
X174.46Y-93.98
X174.46Y-96.52
T5
X114.04Y-53.6
X119.12Y-53.6
X124.2Y-53.6
X132.08Y-52.4
X137.16Y-52.4
X142.24Y-52.4
X147.32Y-52.4
X152.4Y-52.4
M30
